inDegrees=no
num_controls=7
num_derivatives=13
num_iterations=285
num_multipliers=7
num_parameters=0
num_slacks=7
num_states=26
objective=5.569428
objective_accelerations=0.412125
objective_balance=0.050341
objective_effort=0.394708
objective_height=4.664235
objective_ligament=0.048019
solver_duration=2908.405632
status=Solve_Succeeded
success=true
DataType=double
version=3
OpenSimVersion=4.4-2022-07-23-0e9fedc
endheader
time	/jointset/ground_pelvis/pelvis_tilt/value	/jointset/ground_pelvis/pelvis_tx/value	/jointset/ground_pelvis/pelvis_ty/value	/jointset/hip_l/hip_flexion_l/value	/jointset/hip_l/hip_adduction_l/value	/jointset/hip_l/hip_rotation_l/value	/jointset/back/lumbar_extension/value	/jointset/patellofemoral_l/patellar_flexion_l/value	/jointset/knee_l/knee_flexion_l/value	/jointset/knee_l/knee_adduction_l/value	/jointset/knee_l/knee_rotation_l/value	/jointset/ankle_l/ankle_angle_l/value	/jointset/subtalar_l/subtalar_angle_l/value	/jointset/ground_pelvis/pelvis_tilt/speed	/jointset/ground_pelvis/pelvis_tx/speed	/jointset/ground_pelvis/pelvis_ty/speed	/jointset/hip_l/hip_flexion_l/speed	/jointset/hip_l/hip_adduction_l/speed	/jointset/hip_l/hip_rotation_l/speed	/jointset/back/lumbar_extension/speed	/jointset/patellofemoral_l/patellar_flexion_l/speed	/jointset/knee_l/knee_flexion_l/speed	/jointset/knee_l/knee_adduction_l/speed	/jointset/knee_l/knee_rotation_l/speed	/jointset/ankle_l/ankle_angle_l/speed	/jointset/subtalar_l/subtalar_angle_l/speed	/forceset/tau_hip_flexion_l	/forceset/tau_hip_adduction_l	/forceset/tau_hip_rotation_l	/forceset/tau_knee_flexion_l	/forceset/tau_ankle_angle_l	/forceset/tau_subtalar_angle_l	/forceset/tau_lumbar_extension	lambda_cid13_p0	lambda_cid13_p1	lambda_cid13_p2	lambda_cid13_p3	lambda_cid13_p4	lambda_cid13_p5	lambda_cid14_p0	/jointset/ground_pelvis/pelvis_tilt/accel	/jointset/ground_pelvis/pelvis_tx/accel	/jointset/ground_pelvis/pelvis_ty/accel	/jointset/hip_l/hip_flexion_l/accel	/jointset/hip_l/hip_adduction_l/accel	/jointset/hip_l/hip_rotation_l/accel	/jointset/back/lumbar_extension/accel	/jointset/patellofemoral_l/patellar_flexion_l/accel	/jointset/knee_l/knee_flexion_l/accel	/jointset/knee_l/knee_adduction_l/accel	/jointset/knee_l/knee_rotation_l/accel	/jointset/ankle_l/ankle_angle_l/accel	/jointset/subtalar_l/subtalar_angle_l/accel	gamma_cid13_p0	gamma_cid13_p1	gamma_cid13_p2	gamma_cid13_p3	gamma_cid13_p4	gamma_cid13_p5	gamma_cid14_p0
1	0.01309852157749644	-0.006096356357525844	0.7479593922041651	0.9932165253306986	-0.3405221943354114	0.03539289816462024	-0.9599310885968813	1.271407796075581	1.271407796075581	-0.09054997800303256	-0.1745327440559274	0.355868415090704	0.08363747865394636	0.1175765524882448	0.03062661788146608	0.06161775102193052	-0.306202799152503	-0.003763006105373214	-0.06680814738498438	-0.002513839372385124	-0.1615245486182964	-0.1615245486182969	-0.0001067798677266314	-3.904969288840193e-06	0.01768823452662827	0.004398100833109373	-0.2860657379179266	0.04008825774748676	-0.0020541295312748	-0.3608937794862249	-0.04637431339526046	0.03656936744474622	0.3794419499139042	-63.79493398329363	-5.438002003181687	1.241875707088774	17.02519927574438	-781.0230741546366	-76.67327153570687	-0.2264404213098722	0.3931643416957388	-0.05718853043219264	1.175999707428098	-3.581674700199521	0.03100154909979289	-1.5044226067627	0.4768254749276719	-4.496481695931041	-4.496481695931216	-0.2210207871459687	-0.01401048525097565	-1.634742952075382	-0.7228228744388735	-9.972805382762848e-09	1.672470653289832e-08	4.718963552504157e-08	8.775623866472412e-09	-2.481774026412588e-08	7.79073659315142e-08	-1.182835558293346e-08
1.01	0.01429337824389735	-0.005792812476941662	0.7486341604743558	0.9899763704743645	-0.3405576923158032	0.03464906600540114	-0.9599310885968813	1.269568232546132	1.269568232546131	-0.09056057471858327	-0.1745327299430837	0.3559638972210841	0.08364634496752721	0.1213738071748116	0.0300960489173741	0.07332588366009309	-0.3418040575858776	-0.003331188013295638	-0.08195190964603397	0.002598051590785801	-0.2063789907322668	-0.2063789907322634	-0.002012526751275468	5.304856582207695e-06	0.001415708132916081	-0.002613038302407369	-0.2856711667184333	0.04023805300035598	-0.002112429141835948	-0.3604889000576754	-0.04658224161737857	0.03669508570595749	0.3795536404295779	-63.84127587671406	-5.506577451250954	1.278040979524766	16.79914017044183	-781.0016414497576	-76.74593995661751	-0.2399608705672835	0.3698587690138969	-0.04890442664369389	1.166710923975675	-3.545736267406161	0.05007706939734223	-1.518410217442707	0.5410031294958904	-4.478547253487262	-4.478547253486568	-0.175353441377996	0.008189360512548401	-1.622381076325778	-0.688498598853461	-1.634789076201188e-08	6.883911334239392e-09	6.977473773592626e-08	1.518744688233467e-08	-3.101052056921048e-08	7.741683360239954e-08	-1.613047029117906e-08
1.02	0.01552557800453849	-0.005494156955447606	0.7494257082473214	0.9863809260631947	-0.340588711089247	0.03375398478723777	-0.9598774444146277	1.267280400238673	1.26728040023867	-0.09059022926345406	-0.1745326632031685	0.3558968793688659	0.08358545205660389	0.1250451713364481	0.02964894606344087	0.08497365157686641	-0.3772607101192417	-0.002867164715794153	-0.09705795917374813	0.008215231453319649	-0.2511783042205268	-0.2511783042205186	-0.003918345731570341	6.620442709501914e-06	-0.01481176199306194	-0.009553744067739739	-0.285276595518946	0.04038784825322476	-0.002170728752403028	-0.3600840206291271	-0.04679016983949615	0.03682080396716853	0.3796653309452467	-63.9012354603915	-5.571085720990918	1.31163520634063	16.63103060070483	-781.1568540320733	-76.80351941246828	-0.257445961238254	0.3679862367096647	-0.04049530840043903	1.163926763150245	-3.552753520197421	0.03744259018457395	-1.49688006009561	0.5778832548001752	-4.485455970788982	-4.485455970788979	-0.2210352064951771	-0.01558933319972737	-1.625731698528545	-0.7087362004019981	-2.11995715529674e-08	-6.393785194783731e-09	9.172355493909236e-08	1.791278496220189e-08	-3.658567851656268e-08	7.067723272506072e-08	-2.011357700754596e-08
1.03	0.01679362258776114	-0.005199418768904655	0.7503333902507616	0.9824317773031361	-0.340614927609351	0.03270812409437771	-0.9597641709440481	1.264544915175171	1.264544915175165	-0.09063900621929005	-0.1745325933126238	0.3556679880590367	0.08345561298435569	0.1285186184991355	0.02932643012893411	0.09654859834064959	-0.4125312806215733	-0.002370747134327462	-0.1121035872670032	0.0146174498234535	-0.2959034047978126	-0.2959034047978042	-0.005839196037004953	6.965321243759233e-06	-0.03094128472473495	-0.01639155010788435	-0.2853904229412624	0.04059526422225471	-0.002250864562066302	-0.3593123138983308	-0.04698197183484715	0.03702400178044865	0.3804354696746522	-63.95066822513637	-5.685657040243592	1.369854319605843	16.2117104148672	-781.4747609345819	-76.89014197251413	-0.2793216175949669	0.3302535358710055	-0.02396476700639403	1.152147552756689	-3.508547125034704	0.0565397400755799	-1.506836487869423	0.6980892022217074	-4.463736706091827	-4.463736706091786	-0.1779447411796067	0.007811163968691241	-1.60278290994298	-0.667934793572337	-2.60357073991444e-08	-1.970655214554529e-08	1.136658794380981e-07	2.060050584884465e-08	-4.215453419495842e-08	6.387386584212775e-08	-2.409342854032226e-08
1.04	0.01809504755857446	-0.004907072747912898	0.7513563955057926	0.9781310551760968	-0.3406360202740504	0.03151212065979872	-0.9595815356749465	1.261362639184918	1.261362639184909	-0.09070705863790358	-0.1745325270201805	0.3552785574519996	0.0832580694541558	0.1317212488547328	0.0291705129532019	0.1080383018950064	-0.4475753835152511	-0.001842393634946434	-0.127086507517417	0.02208759115765651	-0.3405364895708363	-0.3405364895708277	-0.007773438286919561	5.900823325666427e-06	-0.04691962143466018	-0.0230946356580949	-0.2855042503635803	0.04080268019128436	-0.002331000371732376	-0.3585406071675349	-0.04717377383019807	0.03722719959372851	0.3812056084040565	-64.01377927185428	-5.796248277672087	1.425627879881386	15.8480804951952	-781.971181882649	-76.9626351824987	-0.3060790456999976	0.3138228752916537	-0.007175556645525516	1.146878121264964	-3.507459998466651	0.04382977376744464	-1.484338491527381	0.7914678476139976	-4.467052809936548	-4.467052809936547	-0.2237135953911762	-0.0158712084901878	-1.595494494178983	-0.6817921024151785	-2.943881025486362e-08	-3.462801867468787e-08	1.327016968735465e-07	2.063120890256695e-08	-4.656165579180862e-08	5.200373848495737e-08	-2.7364653548153e-08
1.05	0.01942723516681545	-0.004615483707095278	0.7524938160624823	0.9734810757509068	-0.3406516659673338	0.03016670468714491	-0.9593192010675292	1.257734582364737	1.257734582364735	-0.09079459190648902	-0.1745324882514697	0.3547300502793529	0.08299416825254025	0.1346784361657398	0.0291720152528968	0.1194258063590018	-0.482375223637809	-0.001279071904300695	-0.1419818271966308	0.03052563073652166	-0.3850499517519338	-0.3850499517519324	-0.009733959709560673	2.158786760598653e-06	-0.06276086109284443	-0.02965996217842491	-0.2851643584884485	0.04095980108502702	-0.002430938860667074	-0.3575388845652215	-0.0471442659283682	0.03745529954316918	0.3814787192015576	-63.96906260502885	-5.943627994434968	1.495369597088327	15.45086147188619	-781.8907785199121	-77.06106933646566	-0.3382995034064861	0.2809894699717064	0.007525244927090375	1.131675915735369	-3.459457267468741	0.06371907834155739	-1.489927500575735	0.8919170746085856	-4.439748359623735	-4.439748359624828	-0.1823496724661547	0.007449801816524073	-1.575299793114686	-0.6400662858731829	-3.279713082963103e-08	-4.959975706565485e-08	1.516466859632588e-07	2.05788801490105e-08	-5.093247319861053e-08	3.997527486296712e-08	-3.06137339770792e-08
1.06	0.02078785921035899	-0.0043231372189507	0.7537445095251657	0.9684844556748263	-0.3406614513021848	0.02867277575880697	-0.958968097052006	1.25366213983526	1.253662139835267	-0.09090175604065484	-0.174532471802515	0.3540237584918292	0.08266538111391521	0.1374085359154064	0.02932200241859349	0.1306928830937383	-0.5169035136931016	-0.0006703219485184881	-0.1567890986541391	0.03984147277881983	-0.4294136314301271	-0.4294136314301334	-0.01169961140282468	1.436872443064592e-06	-0.07847654441009043	-0.03607182306000598	-0.2848244666133204	0.04111692197876931	-0.002530877349606683	-0.3565371619629088	-0.04711475802653801	0.03768339949260965	0.3817518299990555	-63.9379579370176	-6.087164540877009	1.562830723591528	15.10662950435365	-781.9887085787166	-77.14698846047843	-0.3766115292380982	0.2684053630235622	0.02252141655483782	1.122792575413168	-3.453149985013564	0.05291541879473699	-1.466728847186323	0.9670283403005943	-4.437096309355717	-4.43709630935582	-0.2247396495157563	-0.01526718404068293	-1.570383225991327	-0.6510989746653909	-3.604134559228715e-08	-6.482732184985019e-08	1.663525897511318e-07	2.059667934707771e-08	-5.496875195710012e-08	2.739832125166582e-08	-3.331786989142004e-08
1.07	0.02217469102916651	-0.004028541534045441	0.7551072241353326	0.963143943626378	-0.3406649288400965	0.02703132163051191	-0.9585195316561568	1.249146886977287	1.249146886977305	-0.09102869723056163	-0.1745324635082927	0.3531609412229617	0.08227324873566594	0.1399227350476216	0.02962263359566665	0.1418250448372899	-0.5511483880386894	-1.615262949384475e-05	-0.1714839972239339	0.05001146612758588	-0.4736037621781777	-0.4736037621781744	-0.013688528632537	3.143694368134432e-07	-0.09406484821833029	-0.0423248978055103	-0.2842474575865621	0.04125335036122588	-0.002648523542489579	-0.3552708679544931	-0.04692554022293265	0.03794350395809876	0.381777087645721	-63.82642536172079	-6.266782911521147	1.645296764763735	14.68736770638973	-781.6761716139168	-77.25397605089292	-0.4217260941221738	0.2376613713331092	0.03766294723061624	1.104667004199123	-3.402583224600128	0.07300413159247675	-1.468244419374652	1.062963792629847	-4.404987523169641	-4.404987523168127	-0.1859738805071776	0.007512910990812405	-1.549750091107751	-0.6079567713074182	-3.927949089685224e-08	-8.006849442091938e-08	1.808330102782686e-07	2.061820875533766e-08	-5.898723610663692e-08	1.479219264093309e-08	-3.59930193954106e-08
1.08	0.02358561167589769	-0.003730173741580045	0.7565805081690097	0.9574624974214186	-0.3406615973961905	0.02524344370501906	-0.9579650705347271	1.244190729598706	1.244190729598737	-0.09117552881692827	-0.1745324569002141	0.3521429016894383	0.08181947660059882	0.142226301500342	0.03007642393062051	0.1528067677957593	-0.5850903449950267	0.0006914744149761483	-0.1860738580936726	0.06102061789496206	-0.5175945355518251	-0.5175945355518113	-0.01567769069457728	1.099643286860689e-06	-0.1095209973412678	-0.04839977442359341	-0.283670448559806	0.04138977874368334	-0.002766169735384005	-0.3540045739460779	-0.0467363224193267	0.03820360842358976	0.3818023452923844	-63.72844536010281	-6.442695967854522	1.725649779255798	14.31828155232369	-781.5417122739269	-77.35035250966122	-0.4743933660893222	0.2262788271246033	0.05315324813098848	1.092704818396725	-3.392566507163495	0.0636069638838053	-1.445721307175117	1.134860024022613	-4.397224834475091	-4.397224834474991	-0.2247886159813502	-0.0148856286694261	-1.543952288930839	-0.6154593491811453	-4.191605582750218e-08	-9.509640014495495e-08	1.90372560379537e-07	2.011636068024562e-08	-6.218951229859229e-08	1.115027759524881e-09	-3.790318691551252e-08
